<?xml version="1.0" encoding="utf-8"?>
<!-- Generator: Adobe Illustrator 27.6.1, SVG Export Plug-In . SVG Version: 6.00 Build 0)  -->
<svg version="1.1" id="Layer_1" xmlns="http://www.w3.org/2000/svg" xmlns:xlink="http://www.w3.org/1999/xlink" x="0px" y="0px"
	 viewBox="0 0 191 184" style="enable-background:new 0 0 191 184;" xml:space="preserve">
<style type="text/css">
	.st0{filter:url(#a);}
	.st1{fill-rule:evenodd;clip-rule:evenodd;}
	.st2{fill-rule:evenodd;clip-rule:evenodd;fill:#FF9271;}
	.st3{fill:#DF5C34;}
	.st4{fill:#F47B56;}
	.st5{fill:#00F3FF;stroke:#FFFFFF;stroke-miterlimit:10;}
</style>
<filter  filterUnits="objectBoundingBox" height="313.7%" id="a" width="295.8%" x="-97.9%" y="-76.3%">
	<feOffset  dy="25" in="SourceAlpha" result="shadowOffsetOuter1"></feOffset>
	<feGaussianBlur  in="shadowOffsetOuter1" result="shadowBlurOuter1" stdDeviation="25"></feGaussianBlur>
	
		<feColorMatrix  in="shadowBlurOuter1" values="0 0 0 0 0.209139076 0 0 0 0 0.0691446444 0 0 0 0 0.478091033 0 0 0 0.497159091 0">
		</feColorMatrix>
</filter>
<g>
	<g transform="translate(50.93 2.125)">
		<g class="st0">
			<path id="b_00000005962808327204014320000012687404383173897614_" class="st1" d="M0,27.8v53.9l42,24l47.4-28V23.8"/>
		</g>
		<g>
			<path id="b_00000142858053619251379580000012549055557028735886_" class="st2" d="M0,27.8v53.9l42,24l47.4-28V23.8"/>
		</g>
	</g>
	<path class="st3" d="M92.9,53.9v53.9l47.4-28V25.9L92.9,53.9z"/>
	<path class="st4" d="M50.9,29.9L99.6,2.1l40.7,23.8l-47.4,28L50.9,29.9z"/>
	<path class="st5" d="M94,14.5c4.9-0.3,9.9,0.8,14.2,3.1c2.5,1.5,3.8,3,4,4.6c0.2,1.6-0.6,3-2.6,4.1c-0.9,0.6-1.9,1-3,1.2
		c-0.9,0.2-1.8,0.3-2.7,0.3l-1-0.1c0.1,0.2,0.2,0.4,0.2,0.7c0,0.6-0.2,1.1-0.5,1.6c-0.5,0.9-1.2,1.6-2.1,2.1c-2,1.2-4.3,1.8-6.7,1.8
		c-2.4,0.1-4.8-0.5-7-1.8c-2-1.2-3-2.6-3.1-4.2c0-1.7,1-3.3,2.6-4c0.7-0.5,1.5-0.8,2.4-1c0.7-0.2,1.3-0.3,2-0.3h0.7l-1.3-0.8
		l3.6-2.2l8.3,4.9c1.3,0.7,2.9,0.7,4.2,0c1.8-1.1,1.1-2.6-1.9-4.3c-3.2-1.8-6.9-2.6-10.6-2.3c-3.9,0-7.7,1.1-11,3.2
		c-3,1.9-4.5,4.1-4.5,6.8c0,2.6,1.6,4.8,4.7,6.7c3.4,1.9,7.3,2.8,11.1,2.7c3.9,0.1,7.7-0.9,11-2.9c1.2-0.7,2.2-1.5,3.1-2.6
		c0.6-0.6,1-1.4,1.3-2.2l0.2-0.8l4.8,0.3c0,0.1,0,0.3,0,0.4c-0.1,0.4-0.2,0.8-0.3,1.2c-0.2,0.6-0.5,1.2-0.8,1.7
		c-0.5,0.7-1.1,1.4-1.7,2c-0.8,0.8-1.8,1.5-2.8,2.1c-2.9,1.7-6,2.9-9.3,3.4c-3.6,0.6-7.3,0.7-10.9,0.2c-3.3-0.4-6.5-1.4-9.3-3.1
		c-2.3-1.2-4.2-3.2-5.3-5.6c-0.9-2.1-0.9-4.5,0-6.6c1.1-2.4,2.9-4.4,5.3-5.8C83.8,16.1,88.8,14.6,94,14.5L94,14.5z M98.7,27.8
		c-0.2-0.9-0.8-1.6-1.6-2c-1-0.6-2.2-0.9-3.3-0.9c-1.1,0-2.2,0.2-3.1,0.8c-0.8,0.4-1.3,1.1-1.3,2c0.1,0.9,0.7,1.7,1.5,2
		c1,0.6,2.2,0.9,3.4,0.9c1.1,0,2.3-0.3,3.3-0.8C98.3,29.3,98.7,28.6,98.7,27.8"/>
</g>
</svg>
